<svg version="1.1" xmlns="http://www.w3.org/2000/svg" style="display: block;" viewBox="0 0 2048 1365" width="1536" height="1024" preserveAspectRatio="none">
<defs>
	<linearGradient id="Gradient1" gradientUnits="userSpaceOnUse" x1="1513.41" y1="1062.7" x2="1487.98" y2="1077.66">
		<stop class="stop0" offset="0" stop-opacity="1" stop-color="rgb(10,12,10)"/>
		<stop class="stop1" offset="1" stop-opacity="1" stop-color="rgb(37,45,49)"/>
	</linearGradient>
	<linearGradient id="Gradient2" gradientUnits="userSpaceOnUse" x1="1129.55" y1="713.948" x2="1064.78" y2="709.549">
		<stop class="stop0" offset="0" stop-opacity="1" stop-color="rgb(2,12,12)"/>
		<stop class="stop1" offset="1" stop-opacity="1" stop-color="rgb(37,43,45)"/>
	</linearGradient>
	<linearGradient id="Gradient3" gradientUnits="userSpaceOnUse" x1="271.867" y1="473.191" x2="252.001" y2="510.952">
		<stop class="stop0" offset="0" stop-opacity="1" stop-color="rgb(16,15,12)"/>
		<stop class="stop1" offset="1" stop-opacity="1" stop-color="rgb(42,53,56)"/>
	</linearGradient>
</defs>
<path transform="translate(0,0)" fill="rgb(36,45,47)" d="M 492.919 151.201 C 586.265 135.925 674.303 199.266 689.489 292.626 C 704.674 385.987 641.249 473.964 547.873 489.058 C 454.626 504.133 366.796 440.813 351.632 347.58 C 336.467 254.347 399.702 166.457 492.919 151.201 z M 356.291 342.971 C 370.566 339.609 387.452 336.911 402.142 337.559 C 442.479 339.339 471.495 350.189 512.759 344.332 C 530.454 341.838 548.833 337.791 566.526 334.784 C 611.346 327.166 640.678 340.944 680.556 359.743 C 686.59 332.359 690.61 308.339 681.428 280.625 C 658.819 281.322 642.069 289.214 615.74 288.016 C 591.762 286.925 568.397 275.515 548.084 277.279 C 501.143 286.13 473.986 305.183 424.713 289.534 C 407.914 284.199 374.183 288.157 356.882 292.982 C 353.488 309.454 353.287 326.424 356.291 342.971 z M 389.955 221.528 C 411.38 221.47 432.623 216.601 453.645 212.832 C 480.234 208.064 505.044 217.547 531.291 217.035 C 575.949 214.742 602.725 201.753 645.786 217.691 C 642.535 213.15 639.335 210.05 635.223 206.363 C 599.069 173.943 545.722 153.729 496.893 160.571 C 458.411 163.964 418.543 186.918 394.028 216.326 C 392.608 218.01 391.249 219.745 389.955 221.528 z M 358.162 349.453 C 361.731 366.783 364.836 374.613 372.051 390.853 C 394.956 378.252 449.141 376.075 475.244 377.228 C 495.224 379.136 503.92 380.309 523.59 385.09 C 538.086 375.649 553.637 364.535 570.585 360.561 C 591.285 355.706 621.565 365.947 627.7 388.203 C 641.927 382.017 657.411 379.007 672.913 380.781 C 674.873 375.856 677.087 370.72 678.314 365.593 C 645.798 351.94 613.496 335.088 577.171 340.369 C 546.746 344.377 517.874 353.137 486.838 353.188 C 451.67 353.245 418.494 341.342 383.266 345.478 C 374.886 346.462 366.338 348.592 358.162 349.453 z M 484.805 251.81 C 501.822 249.461 518.62 253.065 535.775 254.735 C 545.852 255.615 555.977 255.816 566.081 255.337 C 580.272 254.727 593.013 253.674 607.009 251.731 C 625.765 249.127 647.796 243.401 666.478 244.255 C 661.356 237.699 658.852 234.055 652.34 228.829 C 639.566 218.579 606.417 214.805 590.45 217.392 C 565.062 220.605 544.055 225.808 518.016 223.896 C 504.01 222.867 482.754 217.591 470.262 218.761 C 441.403 221.465 414.304 227.526 384.929 229.315 C 377.748 238.027 373.779 246.551 369.016 256.677 C 399.681 252.671 417.478 254.564 445.602 240.134 C 462.324 233.392 473.959 238.244 484.805 251.81 z M 365.31 264.852 L 358.174 284.887 C 384.284 279.933 401.897 278.283 428.631 283.029 C 442.454 285.483 452.444 289.156 466.756 288.515 C 498.613 287.089 525.19 270.313 556.489 270.677 C 574.474 270.886 586.46 276.023 603.573 279.55 C 615.557 282.019 629.001 280.784 641.13 279.482 C 655.463 276.779 665.365 274.861 679.846 274.572 C 676.695 265.807 674.724 260.174 669.939 251.987 C 635.614 250.801 603.372 261.379 568.777 262.638 C 542.601 263.591 517.812 258.88 492.762 259.084 C 473.835 259.238 454.414 288.331 433.632 266.366 C 432.002 264.843 431.432 263.454 430.782 261.434 C 431.876 258.295 430.946 259.566 433.838 257.62 C 439.99 258.928 442.917 266.63 445.975 267.556 C 455.114 270.325 470.878 260.597 477.923 254.957 C 473.308 249.6 469.429 244.436 461.742 243.973 C 459.676 243.862 457.603 243.935 455.549 244.191 L 454.338 244.561 C 445.863 247.224 437.146 253.73 431.565 255.132 C 410.554 260.412 386.334 259.858 365.31 264.852 z M 575.073 366.164 C 557.186 370.41 546.612 379.522 531.104 387.1 C 549.42 393.64 559.337 397.704 578.7 400.703 C 588.258 400.882 635.704 398.023 614.619 378.51 C 605.801 370.35 589.64 365.051 577.354 365.97 C 576.593 366.027 575.833 366.092 575.073 366.164 z M 649.238 417.81 C 607.409 439.273 541.432 444.05 496.103 434.732 C 447.51 424.743 449.704 415.984 396.744 425.402 C 402.753 432.216 409.424 438.414 416.659 443.907 C 458.237 473.585 506.199 485.151 556.823 476.605 C 594.405 470.593 628.201 450.27 651.131 419.894 L 651.078 418.17 L 649.238 417.81 z M 599.842 427.433 C 624.563 420.522 660.694 413.836 669.896 386.84 C 661.029 387.499 648.621 388.247 640.438 391.14 C 617.273 399.331 606.743 407.218 580.482 406.566 C 557.554 405.997 544.739 398.11 523.491 392.107 C 501.736 385.96 477.681 383.553 455.088 383.446 C 430.693 384.894 408.064 386.355 384.482 392.949 C 381.304 393.837 377.697 394.554 374.429 394.946 C 379.783 404.39 386.155 413.218 393.433 421.273 C 430.174 402.573 485.783 428.757 524.909 431.322 C 555.044 433.297 570.182 431.814 599.842 427.433 z"/>
<path transform="translate(0,0)" fill="rgb(36,45,47)" d="M 1459.62 431.485 C 1473.74 428.925 1509.27 439.07 1523.06 445.988 C 1563.33 466.195 1584.23 497.932 1598.36 539.256 C 1623.49 535.278 1658.16 534.999 1665.3 565.246 C 1659.44 585.721 1640.21 595.036 1621.67 602.236 C 1584.34 616.734 1544.22 624.963 1504.81 631.596 C 1492.52 633.666 1478.89 632.917 1466.5 634.951 C 1404.81 643.631 1335.47 653.39 1274.98 634.466 C 1268.66 631.841 1260.92 626.9 1258.88 620.091 C 1254.04 603.956 1269.17 594.268 1280.59 587.286 C 1292.88 579.765 1304.44 576.044 1317.92 571.931 C 1318.42 568.909 1318.68 564.205 1318.94 561.014 C 1315.68 561.977 1312.39 562.774 1309.1 563.611 C 1279.39 571.18 1219.81 587.788 1203.63 615.76 C 1201.45 619.533 1200.14 623.334 1201.48 627.692 C 1203.6 634.631 1211.11 639.642 1217.16 642.926 C 1280.49 677.284 1479.3 651.748 1552.31 636.657 C 1581.2 630.686 1608.89 621.513 1637.08 613.06 C 1657.84 605.447 1690.66 592.576 1703.5 574.934 C 1723.53 547.43 1694.39 535.108 1673.32 530.412 C 1645.73 524.262 1632.85 524.49 1606.03 527.561 C 1605.02 525.266 1605.29 526.536 1606.01 523.52 C 1616.93 512.277 1669.02 520.861 1683.22 525.355 C 1699.53 529.12 1720.45 541.056 1717.11 561.381 C 1710.1 603.965 1629.39 623.908 1595.5 632.929 C 1580.28 666.65 1566.65 685.935 1533.44 705.016 C 1500.98 723.669 1454.02 726.632 1418.27 716.778 C 1392.69 709.729 1361.68 690.89 1348.41 667.584 C 1310.89 666.677 1231.45 667.762 1201.47 641.856 C 1197 637.953 1194.21 632.483 1193.67 626.577 C 1190.21 587.91 1290.14 557.957 1319.41 555.665 C 1324.31 527.158 1335.31 500.089 1355.37 478.79 C 1382.55 449.931 1420 432.937 1459.62 431.485 z M 1345.73 590.167 C 1409.67 610.893 1508.23 595.76 1566.79 566.009 C 1575.83 561.43 1584.73 556.579 1593.47 551.461 C 1588.06 533.641 1579.22 506.979 1565.89 493.2 C 1502.18 539.034 1412.32 540.128 1339.81 516.476 C 1328.61 539.758 1326.75 556.77 1325.14 581.982 C 1331.96 584.828 1338.82 587.557 1345.73 590.167 z M 1356.29 666.302 C 1363.53 677.059 1372.58 683.782 1383.15 691.19 C 1445.89 731.383 1538.44 718.37 1576.79 651.486 C 1579.66 646.487 1582.84 641.99 1585.55 636.791 L 1584.56 636.237 C 1524.44 651.066 1467.37 658.52 1405.64 663.785 C 1389.08 665.198 1372.52 664.84 1356.29 666.302 z M 1330.65 623.852 C 1332.93 629.429 1333.92 631.87 1337.11 636.909 C 1375.93 637.829 1424.33 636.453 1462.37 627.676 C 1477.39 624.21 1504.07 611.643 1520.31 606.394 C 1548.22 597.371 1573.21 592.596 1601.96 588.053 C 1600.41 582.245 1596.81 560.983 1594.05 558.946 C 1531.54 599.066 1430.3 617.058 1357.67 600.974 C 1347.48 598.718 1332.77 591.48 1325.72 590.473 C 1323.47 596.096 1328.76 617.396 1330.65 623.852 z M 1341.76 512.007 C 1349.45 512.276 1355.32 513.112 1362.76 515.271 C 1377.63 518.63 1401.63 524.268 1416.47 524.693 C 1465.22 526.087 1521.56 517.641 1560.93 487.056 C 1554.34 478.565 1552.4 476.742 1544.02 470.219 C 1489.93 499.264 1418.08 502.343 1359.45 487.322 C 1353.28 495.371 1346.58 503.169 1341.76 512.007 z M 1315.63 579.078 C 1297.07 586.862 1233.13 612.338 1284.39 630.228 C 1297.04 633.684 1314.43 637.378 1327.54 635.883 C 1322.09 622.773 1319.59 612.073 1318.77 597.713 C 1318.53 593.495 1318.23 582.658 1317.29 579.226 L 1315.63 579.078 z M 1486.46 626.598 C 1502.95 625.373 1517.47 622.658 1533.65 619.24 C 1564.72 613.04 1594.39 605.867 1623.73 593.344 C 1633.73 589.076 1661.05 576.653 1656.68 562.068 C 1650.75 542.26 1616.66 543.785 1599.77 543.911 C 1602.44 555.796 1610.3 581.153 1607.18 593.316 C 1606.53 595.861 1591.61 596.783 1587.92 597.377 C 1552.59 603.072 1519.53 612.124 1486.46 626.598 z M 1453.85 440.405 C 1418.02 443.87 1390.36 457.015 1364.48 482.065 C 1389.25 486.345 1422.69 491.848 1447.75 488.179 C 1479.32 487.75 1510.3 477.641 1539.02 465.551 C 1516.72 450.915 1480.72 435.195 1453.85 440.405 z"/>
<path transform="translate(0,0)" fill="rgb(36,45,47)" d="M 1562.85 646.012 C 1563.5 646.458 1564.57 647.559 1565.13 648.098 C 1564.1 650.797 1561.96 652.754 1559.57 654.08 C 1524.85 673.3 1423.79 682.943 1388.23 675.34 L 1384.72 672.802 L 1384.91 671.81 C 1400.55 670.22 1419.91 671.543 1436.23 670.806 C 1485.17 668.595 1517.44 662.925 1562.85 646.012 z"/>
<path transform="translate(0,0)" fill="rgb(36,45,47)" d="M 1122.43 132.399 C 1162.24 129.539 1194.6 141.632 1226.64 163.827 C 1252.2 159.002 1275.6 151.913 1302.11 155.016 C 1315.89 156.628 1341.27 162.089 1337.36 181.46 C 1330.2 216.928 1290.2 241.068 1263.6 261.604 C 1263.89 266.265 1264.12 270.93 1264.28 275.597 C 1265.47 318.25 1235.45 359.129 1198.07 377.393 C 1176.79 387.787 1158.71 390.85 1135.34 391.445 C 1104.96 390.504 1065.75 375.743 1044.28 354.035 C 1019.55 363.791 973.847 369.937 947.706 363.496 C 934.624 360.273 926.81 354.898 920.1 343.422 C 919.862 338.059 919.509 331.945 921.421 326.881 C 932.218 298.282 974.261 275.637 1000.01 263.039 C 998.127 233.541 1007.25 204.392 1025.62 181.234 C 1051.94 147.579 1082.01 137.297 1122.43 132.399 z M 1108.69 307.034 C 1160.96 288.491 1208.08 267.32 1253.35 234.787 C 1247.05 201.61 1241.39 184.709 1212.76 164.314 C 1194.61 151.384 1154.74 138.099 1133.36 140.512 C 1105.36 141.463 1081.84 145.811 1058.41 162.005 C 1002.77 200.478 990.372 275.244 1031.96 328.529 C 1058.16 323.819 1083.85 316.621 1108.69 307.034 z M 1258.95 186.439 L 1246.36 187.258 C 1251.89 199.01 1258.82 214.575 1258.76 227.503 C 1258.76 228.606 1259.11 229.037 1259.72 229.879 L 1262.73 227.041 C 1269.68 219.28 1285.62 202.096 1275.18 190.897 C 1272.64 188.178 1262.8 186.257 1258.95 186.439 z M 1276.66 162.394 C 1259.65 164.192 1250.19 165.784 1233.68 169.563 L 1242.24 181.234 C 1252.47 179.402 1269.99 179.221 1278.76 185.445 C 1282.54 188.105 1285.05 192.209 1285.69 196.783 C 1287.15 207.004 1280.83 217.565 1274.72 225.196 C 1237.19 272.03 1079.83 331.278 1020.38 337.32 C 1008.81 338.496 989.661 339.863 980.157 332.523 C 976.304 329.547 974.994 325.026 974.569 320.364 C 973.727 311.154 978.533 302.779 984.386 296.038 C 989.2 290.493 1000.72 283.274 1001.67 275.961 C 1000.32 272.911 1001.4 273.925 998.453 272.691 C 991.311 273.361 963 291.862 956.649 297.057 C 946.028 305.876 927.488 321.116 926.912 335.383 C 926.011 357.684 966.127 359.367 981.282 358.635 C 1005.95 357.604 1029.47 351.49 1053.13 344.707 C 1124.24 324.321 1192.91 297.281 1255.3 256.755 C 1276.46 243.015 1326.83 209.942 1329.18 180.428 C 1330.81 159.965 1291.32 161.44 1276.66 162.394 z M 1004.34 331.06 C 1008.41 330.939 1022.17 331.164 1024.53 328.819 C 1023.29 324.02 1019.22 324.963 1015.73 318.824 C 1009.72 308.22 1006.33 298.51 1002.45 287.04 C 995.381 294.299 973.931 314.393 985.149 326.162 C 988.894 330.091 998.863 331.223 1004.34 331.06 z M 1255.72 265.453 C 1205.56 295.857 1157.32 318.248 1101.68 337.011 C 1088.93 341.312 1063.95 350.018 1051.02 351.944 C 1059.78 358.407 1064.7 361.615 1075 366.018 C 1088.81 372.721 1098.25 376.926 1112.97 379.925 C 1166.26 390.78 1221.71 367.838 1246.03 318.042 C 1253.73 302.282 1259.56 283.144 1255.72 265.453 z"/>
<path transform="translate(0,0)" fill="rgb(36,45,47)" d="M 1270.23 794.613 C 1350.26 786.768 1421.55 845.162 1429.61 925.17 C 1437.68 1005.18 1379.48 1076.62 1299.49 1084.91 C 1219.19 1093.22 1147.41 1034.75 1139.31 954.432 C 1131.22 874.114 1189.89 802.489 1270.23 794.613 z M 1157.21 957.922 C 1166.92 956.221 1174.75 958.055 1184.07 958.036 C 1213.67 957.979 1233.29 969.135 1258.64 982.643 C 1295.48 1002.28 1330.83 1003.25 1368.71 984.589 C 1389.97 974.368 1408.82 959.766 1424.04 941.743 C 1424.17 928.513 1423.64 920.369 1419.41 907.284 C 1391.7 940.146 1359.05 970.826 1314.25 976.592 C 1301.01 979.369 1267.36 972.721 1285.82 953.485 C 1295.95 944.039 1310.63 940.246 1322.6 933.591 C 1346.29 920.42 1367.69 904.426 1382.24 881.178 C 1388.83 870.647 1381.09 862.811 1384.98 858.034 C 1396.84 866.2 1390.18 883.455 1383.4 892.439 C 1372.26 907.189 1358.64 918.528 1343.32 928.726 C 1331.81 937.256 1290.94 953.76 1287.9 962.727 C 1291.38 974.351 1321.79 969.795 1330.26 966.975 C 1355.89 958.435 1379.44 940.792 1397.69 921.106 C 1404.04 914.27 1410.96 905.255 1416.99 899.352 C 1409.87 881.677 1396.14 854.827 1380.02 844.106 L 1378.29 843.961 C 1364.33 849.508 1347.27 856.643 1335.02 865.199 C 1297.84 891.164 1285.23 917.517 1235.3 923.253 C 1202.66 927.002 1177.85 918.186 1146.98 920.177 C 1143.87 941.885 1147.81 968.147 1156.02 988.403 C 1183.65 984.895 1214.81 985.079 1238.28 1001.54 C 1246.32 1007.18 1252.47 1020.86 1244.95 1028.43 C 1230.92 1042.56 1194.15 1037.54 1179.67 1026.66 C 1191.04 1040.5 1207.07 1055.65 1226.02 1056.69 C 1281.29 1059.73 1334.99 1040.54 1383.09 1014.98 C 1414.57 998.248 1418.6 989.309 1423.44 953.852 C 1416.39 959.698 1410.51 966.113 1402.92 971.563 C 1373.7 992.599 1342.39 1007.88 1305.47 1004.79 C 1268.34 1001.69 1244.1 978.081 1209.33 967.779 C 1197.37 964.237 1161.59 964.67 1156.42 960.941 L 1156.01 959.14 L 1157.21 957.922 z M 1155.99 887.237 C 1152.36 896.484 1150.23 903.683 1147.48 913.264 C 1156.98 913.348 1166.68 913.387 1176.14 914.276 C 1220.2 918.991 1255.9 922.407 1292.37 891.45 C 1321.48 866.732 1336.38 851.06 1374.28 838.996 C 1367.28 833.248 1353.24 821.698 1344.4 820.861 C 1298.59 844.664 1269.37 885.702 1214.52 891.665 C 1190.3 894.297 1179.53 892.643 1155.99 887.237 z M 1171.96 884.129 C 1188.74 887.917 1199.56 887.457 1216.23 885.107 C 1256.54 877.615 1273.91 861.595 1306.36 837.424 C 1315.93 830.299 1328.83 820.865 1340.07 816.761 C 1325.27 810.624 1312.3 804.824 1296.06 803.8 C 1267.41 827.133 1206.35 876.599 1171.96 884.129 z M 1174.76 992.407 C 1169.4 993.111 1164.19 993.77 1158.87 994.741 C 1173.34 1023.64 1195.95 1033.34 1227.88 1029.68 C 1271.48 1014.23 1199.64 986.125 1174.76 992.407 z M 1288.41 802.581 C 1283.71 802.536 1277.82 802.31 1273.22 802.512 C 1239.23 803.153 1206.68 820.189 1183.43 844.418 C 1171.42 856.935 1165.58 867.395 1157.98 882.555 C 1162.35 881.077 1168.41 878.823 1172.75 877.958 C 1203.29 870.704 1261.3 821.684 1288.41 802.581 z M 1401.63 1012.26 C 1354.44 1042.85 1279.7 1069.72 1222.81 1061.61 L 1236.67 1066.43 C 1267.35 1079.95 1303.33 1080.31 1334.82 1068.67 C 1358.16 1060.03 1389.53 1035.15 1401.58 1013.43 L 1401.63 1012.26 z"/>
<path transform="translate(0,0)" fill="rgb(36,45,47)" d="M 857.569 420.636 C 937.124 410.054 1010.12 466.16 1020.36 545.76 C 1030.61 625.359 974.187 698.117 894.544 708.017 C 815.383 717.857 743.16 661.853 732.981 582.735 C 722.802 503.616 778.496 431.155 857.569 420.636 z M 992.029 590.677 C 983.737 602.874 980.768 616.685 973.645 629.389 C 967.813 639.791 950.016 663.9 935.645 657.694 C 925.894 647.128 934.318 623.497 930.618 609.262 C 922.505 578.05 875.811 601.357 875.565 564.735 C 875.812 544.329 889.703 521.308 912.181 521.984 C 923.689 522.33 932.275 527.776 942.776 530.452 L 943.189 529.289 C 944.639 525.262 946.829 520.127 951.278 518.654 C 974.322 511.023 960.586 541.705 974.338 549.015 C 983.247 553.75 991.784 540.581 1001.13 544.08 L 1002.02 545.299 C 998.404 552.544 980.987 552.173 985.289 564.391 C 987.165 569.717 993.914 571.586 998.928 570.47 C 1004.02 569.337 1007.62 573.704 1013.07 573.081 C 1017.05 567.335 1013.77 548.424 1012.4 541.424 C 1004.36 500.259 984.159 474.043 950.491 450.572 C 949.702 450.019 948.905 449.477 948.102 448.945 C 942.883 452.668 928.865 461.753 927.558 467.269 C 928.245 473.212 935.72 480.93 938.99 489.265 C 937.63 498.138 936.653 505.333 928.878 510.866 C 918.788 518.029 902.493 514.875 895.59 504.554 C 892.041 499.249 891.099 493.962 892.041 487.253 C 893.373 477.768 907.887 468.84 914.078 479.131 C 916.232 482.713 913.348 489.534 911.352 493.241 L 900.542 500.445 C 908.385 507.246 918.942 514.34 927.901 504.074 C 931.177 500.246 932.706 495.226 932.119 490.222 C 930.601 476.799 913.051 479.503 925.18 459.076 C 927.737 454.768 937.261 449.303 941.95 446.34 C 923.545 435.47 900.261 430.31 879.029 429.329 C 873.571 429.077 868.325 429.769 863.26 429.495 C 800.734 433.957 748.837 480.631 740.813 543.761 C 740.732 544.399 741.246 545.736 741.463 546.316 C 748.629 547.368 766.09 551.776 771.399 547.008 C 783.437 536.197 793.932 523.205 808.579 515.591 C 811.654 513.998 818.501 513.468 821.542 510.855 C 824.482 508.296 826.329 504.707 826.702 500.827 C 828.415 481.295 804.427 491.837 796.119 495.317 C 792.269 496.931 780.544 495.727 777.271 492.854 L 777.599 491.011 C 781.787 488.226 788.367 491.461 792.133 490.458 C 808.081 486.116 820.232 473.893 831.804 494.083 C 838.259 505.345 828.305 514.267 818.742 518.511 C 803.203 525.406 777.076 540.347 782.375 560.589 C 787.32 565.659 790.66 568.039 792.398 574.965 C 810.624 570.384 819.428 569.536 832.603 584.233 C 839.073 591.45 843.768 591.664 853.019 592.569 C 865.251 603.384 863.766 613.629 856.434 627.175 C 847.604 643.491 832.589 673.961 817.739 685.117 C 847.497 701.731 879.279 703.216 911.79 695.897 C 969.635 682.876 1006.5 634.269 1013.72 576.973 C 1003.27 580.25 998.82 582.06 992.029 590.677 z M 908.828 528.004 C 888.577 534.237 867.742 568.344 892.971 580.301 C 907.27 587.078 930.041 584.241 935.758 604.308 C 942.179 623.022 932.239 636.595 939.705 654.334 C 946.339 650.717 951.275 647.883 956.704 642.508 C 972.587 623.402 972.331 615.235 982.748 593.561 C 985.455 587.927 992.461 581.679 992.935 578.697 C 976.246 568.296 984.438 571.233 978.93 559.701 C 977.617 556.949 965.844 551.544 959.946 542.516 C 950.371 538.838 917.232 527.655 908.828 528.004 z M 779.962 583.545 C 783.696 580.679 786.276 579.12 787.051 574.116 C 786.364 572.024 785.938 570.492 783.363 569.61 C 765.889 563.628 768.143 573.672 759.753 555.451 C 752.121 553.755 747.369 552.808 739.502 553.034 C 735.663 582.613 749.38 622.652 768.014 645.792 C 782.045 663.217 793.607 672.713 813.483 682.746 C 828.513 663.083 848.381 634.219 856.132 610.617 C 855.058 606.56 854.272 602.21 850.274 600.184 C 845.486 597.757 839.664 598.32 834.715 595.277 C 827.426 590.796 826.452 585.344 819.098 580.442 C 811.847 577.008 808.33 577.823 800.678 579.332 C 777.151 583.973 780.672 599.388 791.568 615.182 C 805.347 635.155 820.537 654.752 808.606 679.576 C 808.34 671.67 808.206 660.215 805.9 652.998 C 797.2 625.771 782.841 623.657 776.177 593.368 L 779.962 583.545 z"/>
<path transform="translate(0,0)" fill="rgb(36,45,47)" d="M 888.833 443.578 L 890.692 444.172 L 891.463 445.762 C 889.015 453.424 867.545 469.991 858.23 470.486 C 844.195 471.232 838.224 461.636 828.727 453.864 L 827.464 453.232 C 826.28 450.3 826.287 451.737 827.463 448.783 C 835.359 446.341 842.438 462.529 854.347 464.011 C 865.728 465.427 878.787 451.049 888.833 443.578 z"/>
<path transform="translate(0,0)" fill="rgb(36,45,47)" d="M 392.382 582.716 C 468.22 571.787 538.478 624.633 549.01 700.528 C 559.542 776.422 506.329 846.402 430.381 856.537 C 354.992 866.598 285.639 813.862 275.185 738.527 C 264.73 663.192 317.102 593.564 392.382 582.716 z M 284.103 695.682 C 309.484 700.009 327.809 721.619 357.205 724.206 C 402.679 728.208 419.97 697.883 465.82 704.295 C 478.32 707.297 492.802 711.523 505.102 713.694 C 514.909 715.425 531.58 715.049 542.121 715.067 C 540.212 695.906 537.762 682.661 528.52 665.303 C 505.003 667.827 488.587 658.645 466.635 657.479 C 453.002 656.755 434.53 665.679 419.388 663.524 C 397.94 660.471 382.806 645.193 360.894 647.322 C 342.142 649.162 324.139 664.722 306.322 669.766 C 287.166 675.189 289.342 677.697 284.103 695.682 z M 293.449 667.509 C 301.372 664.75 309.447 661.97 317.008 658.251 C 331.131 651.303 342.901 642.776 359.025 640.853 C 377.386 638.664 391.842 647.438 408.186 654.275 C 433.851 663.186 442.035 650.597 463.203 650.964 C 485.962 651.358 499.263 659.166 525.221 658.788 C 500.356 622.126 477.43 599.849 431.56 589.793 C 424.053 588.147 405.129 587.048 397.506 588.342 C 347.98 595.142 314.909 623.064 293.449 667.509 z M 438.687 742.337 C 412.235 746.305 409.85 752.942 387.648 763.472 C 356.763 778.121 318.948 770.127 289.093 757.385 C 291.945 766.116 295.585 775.397 300.349 783.268 C 330.005 780.504 365.627 777.004 392.679 790.363 C 408.059 797.681 422.64 807.594 439.584 799.703 C 471.891 784.656 484.71 782.009 520.184 792.648 C 524.827 784.078 529.267 776.068 533.234 767.158 C 482.649 777.239 477.608 737.476 438.687 742.337 z M 498.813 817.839 C 506.549 810.908 510.971 806.347 516.378 797.507 C 504.317 794.882 490.732 791.69 478.352 793.013 C 455.787 795.424 447.194 809.59 422.461 808.574 C 404.145 807.821 388.79 792.788 375.048 789.713 C 358.59 786.029 323.064 787.951 305.362 788.306 L 304.185 789.511 C 313.63 811.199 344.599 832.609 366.573 841.231 C 398.926 853.957 435.029 853.189 466.81 839.097 C 477.142 834.553 490.842 826.16 498.813 817.839 z M 532.775 760.14 C 539.271 754.556 541.291 734.117 541.984 725.255 C 542.084 723.937 542.157 722.618 542.201 721.297 C 528.719 721.341 513.672 722.086 500.413 719.711 C 484.104 716.93 466.046 709.071 449.409 710.092 C 418.208 712.007 401.383 730.771 368.423 731.591 C 330.784 732.527 316.938 712.26 284.274 703.264 C 279.938 715.741 283.23 739.052 287.887 751.343 C 307.337 756.681 314.127 760.747 334.939 763.898 C 388.705 772.039 400.05 734.46 447.775 735.832 C 487.646 736.977 486.066 770.05 532.775 760.14 z"/>
<path transform="translate(0,0)" fill="rgb(36,45,47)" d="M 502.738 917.65 C 573.838 910.389 637.337 962.204 644.484 1033.32 C 651.631 1104.43 599.713 1167.84 528.589 1174.88 C 457.628 1181.89 394.389 1130.12 387.259 1059.17 C 380.128 988.218 431.8 924.895 502.738 917.65 z M 414.862 980.104 C 404.008 996.255 386.676 1033.16 394.1 1052.46 C 397.737 1052.7 413.686 1053.65 415.81 1054.46 C 429.567 1059.76 439.131 1077.88 454.085 1080.13 C 468.99 1082.38 487.206 1073.07 498.818 1087.15 C 516.851 1109.01 490.968 1125.07 470.468 1121.75 C 457.713 1119.68 457.049 1117.06 447.434 1109.61 C 449.36 1108.38 450.698 1107.21 453.453 1108.28 C 464.606 1112.59 474.787 1119.86 487.118 1114.32 C 491.204 1112.48 497.964 1105.63 499.174 1100.94 C 499.652 1099.03 499.354 1097.01 498.344 1095.32 C 489.195 1080.3 457.419 1089.02 445.517 1084.13 C 422.983 1074.87 423.346 1053.29 394.359 1060.39 C 399.316 1093.31 417.313 1122.84 444.294 1142.33 C 486.608 1173.48 555.988 1174.95 595.966 1139.04 C 574.144 1135.79 555.82 1139.23 534.496 1144.1 C 526.541 1145.91 518.032 1152.6 512.147 1151.21 C 510.649 1148.78 510.929 1150.1 511.589 1147.07 C 512.412 1146.12 514.129 1144.4 515.212 1143.98 C 538.042 1135.02 574.96 1126.95 598.342 1134.01 C 608.92 1136.35 629.402 1092.87 632.537 1083.52 C 621.19 1081.51 611.86 1076.31 599.801 1075.86 C 583.055 1075.25 567.919 1082.89 551.134 1079.97 C 539.726 1077.98 533.091 1073.19 535.415 1061.08 C 538.316 1045.98 550.667 1048.53 562.174 1045.36 C 579.525 1037.52 596.045 1023.72 617.015 1029.65 C 625.165 1031.72 629.756 1034.58 636.799 1039.63 C 632.436 1014.08 627.334 995.736 612.126 974.612 C 584.249 935.889 539.608 918.971 492.981 927.262 C 459.445 933.226 440.183 950.603 418.233 974.625 C 431.404 973.588 438.278 973.598 450.923 969.537 C 467.158 964.324 493.109 939.513 510.05 946.648 C 508.137 950.919 492.026 954.168 487.686 956.889 C 459.443 974.594 448.264 979.998 414.862 980.104 z M 586.731 1070.31 C 601.641 1069.42 621.657 1069.43 633.325 1080.19 C 638.507 1058.84 641.189 1040.84 614.165 1035.76 C 609.56 1034.87 604.848 1034.68 600.185 1035.19 C 586.03 1039.17 574.922 1046.71 562.201 1051.9 C 554.992 1054.85 537.246 1052.35 541.188 1066.6 C 544.896 1080.01 578.735 1071.59 586.731 1070.31 z"/>
<path transform="translate(0,0)" fill="rgb(23,31,31)" d="M 548.26 956.204 C 559.013 955.37 571.693 955.416 578.168 965.467 C 586.364 978.19 574.5 987.749 565.258 993.612 C 558.703 994.794 554.793 995.915 548.155 993.674 C 537.782 990.172 529.526 979.175 534.151 968.076 C 536.91 961.456 542.01 958.931 548.26 956.204 z M 563.508 961.242 C 536.029 956.329 527.322 982.473 552.041 988.289 C 557.936 986.756 561.717 983.817 566.722 980.5 C 571.465 972.581 567.437 968.368 563.508 961.242 z"/>
<path transform="translate(0,0)" fill="rgb(204,195,178)" d="M 563.508 961.242 C 567.77 960.51 568.136 960.857 572.552 963.98 C 573.117 964.379 573.676 964.784 574.232 965.196 C 575.768 969.346 577.358 973.355 578.429 977.652 C 572.932 984.368 560.737 995.881 552.041 988.289 C 557.936 986.756 561.717 983.817 566.722 980.5 C 571.465 972.581 567.437 968.368 563.508 961.242 z"/>
<path transform="translate(0,0)" fill="rgb(23,31,31)" d="M 451.457 1031.44 C 457.255 1030.19 462.984 1033.82 464.331 1039.59 C 465.679 1045.37 462.147 1051.16 456.395 1052.61 C 452.586 1053.56 448.556 1052.39 445.854 1049.54 C 443.152 1046.69 442.199 1042.6 443.36 1038.85 C 444.521 1035.1 447.617 1032.26 451.457 1031.44 z"/>
<path transform="translate(0,0)" fill="rgb(250,249,242)" d="M 452.168 1036.32 C 456.975 1036.93 457.862 1037.17 459.817 1041.45 C 459.782 1045.15 458.914 1045.84 456.55 1048.8 C 449.756 1047.46 448.61 1041.79 452.168 1036.32 z"/>
<path transform="translate(0,0)" fill="rgb(36,45,47)" d="M 810.671 799.467 C 881.448 791.274 945.427 842.109 953.44 912.907 C 961.453 983.704 910.455 1047.55 839.637 1055.39 C 769.074 1063.19 705.506 1012.41 697.522 941.872 C 689.538 871.33 740.15 807.632 810.671 799.467 z M 839.495 839.135 C 844.327 834.599 845.407 836.249 851.263 837.223 C 866.338 839.732 881.575 835.429 896.153 831.962 C 896.235 831.942 899.962 833.057 900.373 833.175 C 848.267 791.772 772.459 800.464 731.077 852.587 C 689.695 904.711 698.419 980.515 750.56 1021.87 C 802.67 1063.21 878.419 1054.49 919.777 1002.4 C 961.134 950.308 952.448 874.555 900.373 833.175 C 888.967 847.676 854.85 846.73 839.495 839.135 z"/>
<path transform="translate(0,0)" fill="rgb(36,45,47)" d="M 724.386 867.513 C 730.597 869.09 741.89 881.747 747.504 883.763 C 770.186 891.905 792.168 897.032 809.009 916.211 C 819.465 928.119 814.625 937.981 803.295 946.644 C 821.123 952.49 841.392 953.563 860.182 954.064 C 866.58 954.235 875.922 950.297 882.517 952.146 L 882.604 953.643 C 873.653 962.862 836.83 959.931 824.582 957.948 C 806.646 955.046 793.764 949.714 774.755 948.884 C 751.783 946.902 727.671 939.856 715.403 919.503 C 713.663 916.617 712.137 915.077 711.173 911.629 L 712.354 910.778 C 720.869 910.606 724.631 923.716 731.777 928.101 C 752.129 940.589 792.068 954.381 809.174 930.948 C 795.465 893.821 744.196 901.021 724.043 872.678 C 722.663 870.737 723.598 869.629 724.386 867.513 z"/>
<path transform="translate(0,0)" fill="rgb(36,45,47)" d="M 727.046 957.33 C 736.067 960.008 744.574 973.107 752.856 979.425 C 787.409 1005.78 830.789 1011.32 873.015 1008.11 C 877.951 1007.74 887.977 1005.19 892.078 1007.16 L 890.515 1007.86 L 890.487 1009.08 L 888.35 1011.84 C 879.338 1015.35 863.243 1015.63 852.959 1015.45 C 808.521 1014.66 768.283 1005.53 735.722 973.63 C 730.96 968.965 726.871 963.919 727.046 957.33 z"/>
<path transform="translate(0,0)" fill="rgb(36,45,47)" d="M 765.801 844.574 C 774.477 844.994 785.259 856.482 797.801 858.082 C 821.468 861.802 866.177 846.909 884.114 869.796 C 899.759 889.76 878.365 900.406 859.382 898.065 C 856.442 896.212 854.999 896.119 854.364 893.47 C 858.422 891.076 869.623 893.178 874.082 891.207 C 900.946 879.331 863.808 862.831 851.087 863.056 C 829.355 863.441 774.91 872.095 765.801 844.574 z"/>
<path transform="translate(0,0)" fill="rgb(36,45,47)" d="M 934.108 954.658 L 935.646 955.649 C 935.86 957.364 936.301 959.351 935.175 960.841 C 909.779 994.45 854.292 997.307 815.876 991.324 C 809.867 990.389 805.334 989.89 800.386 987.484 C 798.199 984.116 798.336 985.426 798.865 982.185 C 802.737 980.516 811.954 984.238 816.71 985.307 C 823.45 986.756 830.306 987.604 837.197 987.84 C 876.648 989.395 904.58 982 934.108 954.658 z"/>
<path transform="translate(0,0)" fill="rgb(36,45,47)" d="M 839.495 839.135 C 844.327 834.599 845.407 836.249 851.263 837.223 C 866.338 839.732 881.575 835.429 896.153 831.962 C 896.235 831.942 899.962 833.057 900.373 833.175 C 888.967 847.676 854.85 846.73 839.495 839.135 z"/>
<path transform="translate(0,0)" fill="rgb(36,45,47)" d="M 1642.5 798.244 C 1699.45 791.515 1751.05 832.29 1757.67 889.254 C 1764.28 946.218 1723.41 997.737 1666.43 1004.24 C 1609.61 1010.73 1558.27 969.992 1551.67 913.186 C 1545.07 856.38 1585.71 804.955 1642.5 798.244 z M 1669.69 995.079 C 1721.49 986.694 1756.71 937.929 1748.38 886.117 C 1740.05 834.305 1691.32 799.036 1639.5 807.31 C 1587.6 815.597 1552.27 864.413 1560.61 916.304 C 1568.95 968.194 1617.81 1003.48 1669.69 995.079 z"/>
<path transform="translate(0,0)" fill="rgb(36,45,47)" d="M 1588.89 896.681 L 1593.7 898.665 C 1591.93 900.603 1589.33 902.869 1587.35 904.707 C 1603.06 915.654 1604.21 924.27 1616.2 938.324 C 1621.21 938.694 1627.52 938.665 1632.64 938.785 C 1649.28 928.252 1663.1 897.478 1688.27 913.1 L 1688.34 914.366 C 1673.83 915.522 1665.64 913.022 1655.18 925.526 L 1654.35 926.534 C 1656.9 931.347 1658.7 935.905 1660.76 940.922 C 1658.28 953.175 1654.66 962.279 1639.95 962.296 C 1611.25 962.33 1608.55 928.371 1588.39 913.398 C 1579.43 906.747 1562.2 907.407 1559.96 905.223 L 1560.71 903.503 C 1570.46 899.889 1581.49 906.486 1588.89 896.681 z M 1627.05 952.908 C 1638.82 959.225 1656.48 959.91 1654.4 939.521 C 1654.19 937.483 1650.97 935.584 1650.59 931.053 C 1646.21 935.058 1643.58 937.799 1638.36 940.914 C 1632.42 944.468 1622.7 943.403 1619.94 945.846 C 1621.1 948.947 1624.23 951.3 1627.05 952.908 z"/>
<path transform="translate(0,0)" fill="rgb(36,45,47)" d="M 1706.2 966.311 C 1691.42 966.567 1679.22 961.091 1683.45 943.409 C 1687.8 925.232 1709.7 909.724 1728.37 914.709 C 1739.35 917.642 1744.91 927.279 1741.54 938.193 C 1736.56 938.263 1738.68 924.075 1728.83 920.362 C 1710.32 913.389 1681.19 937.902 1689.68 957.092 C 1692.98 960.672 1697.32 961.431 1701.96 961.75 L 1702.98 961.814 L 1706.2 966.311 z"/>
<path transform="translate(0,0)" fill="rgb(23,31,31)" d="M 1588.89 896.681 C 1583.83 889.171 1569.14 859.077 1579.76 852.086 L 1581.05 852.741 L 1580.83 852.536 C 1583.4 856.295 1581.44 867.436 1582.93 872.56 C 1585.52 881.453 1591.72 889.763 1593.7 898.665 L 1588.89 896.681 z"/>
<path transform="translate(0,0)" fill="rgb(8,12,12)" d="M 1633.06 823.903 C 1635.91 823.765 1636.36 823.577 1638.89 824.677 C 1637.57 827.748 1632.66 830.603 1629.56 832.903 C 1629.38 833.213 1628.23 834.214 1627.91 834.506 L 1626.71 833.916 C 1627.11 828.902 1629.49 826.929 1633.06 823.903 z"/>
<path transform="translate(0,0)" fill="rgb(23,31,31)" d="M 1702.98 961.814 C 1707.42 959.245 1707.93 958.001 1712.39 957.961 L 1712.91 959.508 C 1710.44 963.416 1709.87 963.796 1706.2 966.311 L 1702.98 961.814 z"/>
<path transform="translate(0,0)" fill="rgb(36,45,47)" d="M 1572.59 164.624 C 1624.69 158.372 1672.02 195.48 1678.38 247.569 C 1684.73 299.657 1647.72 347.058 1595.64 353.519 C 1543.42 359.997 1495.86 322.856 1489.48 270.62 C 1483.11 218.384 1520.34 170.894 1572.59 164.624 z M 1548.85 326.849 C 1554.45 322.771 1558.95 320.629 1560.09 313.809 C 1558.56 305.505 1544.66 300.574 1537.6 294.6 C 1551.21 297.923 1576.72 303.622 1561.13 322.696 C 1559.04 325.246 1556.88 326.571 1555.49 329.657 C 1561.57 332.198 1572.87 328.853 1577.38 331.656 C 1570.58 338.483 1546.88 334.496 1537.77 332.632 C 1578.76 364.852 1639.54 344.174 1660.39 297.653 C 1680.52 252.753 1664.1 200.533 1618.56 179.487 C 1575.89 159.772 1525 177.95 1506.44 221.658 C 1497.38 242.99 1496.08 268.567 1505.09 290.184 C 1509.3 300.307 1520.56 321.06 1531.21 324.83 C 1536.1 325.625 1544.1 327.237 1548.85 326.849 z"/>
<path transform="translate(0,0)" fill="rgb(8,12,12)" d="M 1578.04 225.947 C 1580.73 225.375 1585.86 226.457 1588.36 227.559 C 1591.54 228.924 1594.02 231.544 1595.21 234.799 C 1599.23 245.542 1591.66 251.72 1582.62 254.813 C 1561.99 254.781 1556.01 233.242 1578.04 225.947 z"/>
<path transform="translate(0,0)" fill="rgb(250,249,242)" d="M 1577.29 229.899 C 1591.72 229.677 1599.03 242.7 1582.71 250.136 C 1567.74 250.89 1562.69 238.985 1577.29 229.899 z"/>
<path transform="translate(0,0)" fill="rgb(36,45,47)" d="M 1595.39 311.241 C 1586.28 300.047 1591.84 286.763 1598.56 276.329 C 1621.55 240.629 1666.38 264.735 1642.47 301.03 C 1640.73 303.678 1636.84 307.252 1633.67 307.654 C 1633.36 304.125 1639.89 295.665 1641.43 291.666 C 1642.9 287.853 1643.83 283.904 1644.79 279.966 C 1643.39 276.331 1641.62 272.967 1639.89 269.48 C 1639.32 269.083 1638.74 268.691 1638.16 268.304 C 1617.54 254.586 1592.52 283.923 1596.64 301.27 C 1598.07 302.743 1598.04 302.683 1599.86 303.663 L 1597.48 305.641 C 1597.62 306.477 1597.83 308.084 1598.08 308.819 L 1595.39 311.241 z"/>
<path transform="translate(0,0)" fill="rgb(23,31,31)" d="M 1601.23 304.271 C 1606.42 299.882 1609.46 297.919 1615.26 301.856 C 1622.36 314.385 1606.75 319.542 1595.39 311.241 L 1598.08 308.819 C 1597.83 308.084 1597.62 306.477 1597.48 305.641 L 1599.86 303.663 L 1601.23 304.271 z"/>
<path transform="translate(0,0)" fill="rgb(250,249,242)" d="M 1601.23 304.271 L 1602.66 305.195 C 1606.91 303.814 1607.54 302.802 1611.26 303.83 C 1612.52 305.412 1613.75 306.607 1614.18 308.541 C 1610.75 314.284 1602.39 310.37 1598.08 308.819 C 1597.83 308.084 1597.62 306.477 1597.48 305.641 L 1599.86 303.663 L 1601.23 304.271 z"/>
<path transform="translate(0,0)" fill="rgb(250,249,242)" d="M 1530.11 277.597 C 1531.7 276.06 1534.22 276.053 1535.83 277.58 C 1537.43 279.108 1537.54 281.628 1536.09 283.294 C 1535.09 284.436 1533.54 284.937 1532.06 284.601 C 1530.58 284.264 1529.4 283.143 1529 281.681 C 1528.59 280.219 1529.02 278.651 1530.11 277.597 z"/>
<path transform="translate(0,0)" fill="rgb(23,31,31)" d="M 1021.88 1041.19 C 1028.79 1044.63 1024.93 1057.69 1030.21 1067.96 C 1038.73 1084.52 1046.56 1086.57 1062.6 1092.64 C 1028.58 1102.52 1032.29 1113.3 1023.7 1144.64 C 1018.82 1135.23 1018.18 1119.56 1011.69 1109.52 C 1004.14 1097.83 993.76 1095.68 981.11 1092.86 C 989.552 1088.68 995.065 1088.33 1003.87 1082.09 C 1017.88 1072.17 1019.01 1056.97 1021.88 1041.19 z"/>
<path transform="translate(0,0)" fill="rgb(250,249,242)" d="M 1022.61 1062.71 C 1023.29 1063.39 1023.34 1063.28 1023.65 1064.04 C 1030.41 1080.31 1031.83 1082.56 1045.93 1092.04 C 1027.7 1103.35 1031.85 1107.2 1023.25 1123.33 C 1018.17 1107.32 1013.99 1100.11 998.687 1091.88 C 1012.25 1083.69 1017.92 1077.66 1022.61 1062.71 z"/>
<path transform="translate(0,0)" fill="rgb(250,249,242)" d="M 1381.54 303.709 C 1382.52 297.285 1383.2 289.092 1385.63 283.283 L 1386.86 283.124 C 1389.7 289.831 1389.91 299.192 1392.39 306.592 C 1397.68 322.404 1408.99 328.884 1424.9 331.042 C 1374.48 351.277 1398.83 367.451 1385.89 380.474 C 1383.94 379.242 1383.22 376.615 1382.91 374.449 C 1380.62 358.504 1378.93 350.439 1364.82 340.653 C 1360.68 337.786 1352.13 334.718 1350.4 330.758 C 1352.3 328.409 1351.55 329.154 1355.24 328.387 C 1370.49 322.468 1374.74 318.887 1381.54 303.709 z"/>
<path transform="translate(0,0)" fill="rgb(23,31,31)" d="M 1381.54 303.709 C 1382.52 297.285 1383.2 289.092 1385.63 283.283 L 1386.86 283.124 C 1389.7 289.831 1389.91 299.192 1392.39 306.592 C 1397.68 322.404 1408.99 328.884 1424.9 331.042 C 1374.48 351.277 1398.83 367.451 1385.89 380.474 C 1383.94 379.242 1383.22 376.615 1382.91 374.449 C 1380.62 358.504 1378.93 350.439 1364.82 340.653 C 1360.68 337.786 1352.13 334.718 1350.4 330.758 C 1352.3 328.409 1351.55 329.154 1355.24 328.387 C 1357.96 329.388 1359.38 329.767 1362.22 330.39 C 1364.68 336.466 1378.11 337.549 1385.83 361.665 L 1386.48 359.653 C 1391.53 344.165 1394.23 339.899 1408.91 332.41 C 1401.99 328.521 1400.16 327.327 1394.7 321.726 C 1389.56 316.445 1388.35 307.138 1385.83 305.634 L 1384.7 308.202 L 1381.54 303.709 z"/>
<path transform="translate(0,0)" fill="rgb(23,31,31)" d="M 1381.54 303.709 L 1384.7 308.202 C 1379.64 318.484 1373.54 326.809 1362.22 330.39 C 1359.38 329.767 1357.96 329.388 1355.24 328.387 C 1370.49 322.468 1374.74 318.887 1381.54 303.709 z"/>
<path transform="translate(0,0)" fill="rgb(250,249,242)" d="M 263.765 463.061 C 266.702 456.061 269.129 450.126 270.105 442.545 C 270.505 439.438 270.924 435.299 272.533 432.733 C 276.546 436.603 277.274 451.441 279.565 457.869 C 284.694 467.827 290.422 473.448 301.117 477.391 C 304.395 478.028 308.209 478.292 310.51 480.41 C 308.891 484.805 297.619 487.642 293.034 488.838 C 285.768 499.01 284.285 495.723 279.45 509.986 C 278.973 513.031 274.556 526.802 273.473 530.941 C 266.294 498.202 267.35 493.859 235.904 480.859 C 249.325 476.831 255.158 473.972 263.765 463.061 z"/>
<path transform="translate(0,0)" fill="url(#Gradient3)" d="M 263.765 463.061 L 266.588 467.084 C 261.401 473.688 257.568 476.666 250.381 481.062 C 273.288 492.269 271.044 505.253 275.199 507.689 L 275.906 504.933 C 276.934 506.688 277.906 508.761 279.45 509.986 C 278.973 513.031 274.556 526.802 273.473 530.941 C 266.294 498.202 267.35 493.859 235.904 480.859 C 249.325 476.831 255.158 473.972 263.765 463.061 z"/>
<path transform="translate(0,0)" fill="rgb(23,31,31)" d="M 301.117 477.391 C 304.395 478.028 308.209 478.292 310.51 480.41 C 308.891 484.805 297.619 487.642 293.034 488.838 C 285.768 499.01 284.285 495.723 279.45 509.986 C 277.906 508.761 276.934 506.688 275.906 504.933 C 278.416 498.72 279.246 497.203 283.167 491.772 C 287.051 487.841 296.228 483.863 296.211 480.101 L 291.831 477.445 C 294.793 476.918 296.977 477.851 301.117 477.391 z"/>
<path transform="translate(0,0)" fill="rgb(23,31,31)" d="M 283.167 491.772 L 283.214 494.654 C 286.15 495.2 287.089 489.027 293.034 488.838 C 285.768 499.01 284.285 495.723 279.45 509.986 C 277.906 508.761 276.934 506.688 275.906 504.933 C 278.416 498.72 279.246 497.203 283.167 491.772 z"/>
<path transform="translate(0,0)" fill="rgb(23,31,31)" d="M 263.765 463.061 C 266.702 456.061 269.129 450.126 270.105 442.545 C 270.505 439.438 270.924 435.299 272.533 432.733 C 276.546 436.603 277.274 451.441 279.565 457.869 L 276.367 461.306 L 273.18 453.117 L 266.588 467.084 L 263.765 463.061 z"/>
<path transform="translate(0,0)" fill="rgb(8,12,12)" d="M 279.565 457.869 C 284.694 467.827 290.422 473.448 301.117 477.391 C 296.977 477.851 294.793 476.918 291.831 477.445 C 285.199 475.209 279.783 466.93 276.367 461.306 L 279.565 457.869 z"/>
<path transform="translate(0,0)" fill="rgb(250,249,242)" d="M 1096.2 664.08 C 1101.35 681.861 1097.6 699.766 1114.54 712.383 C 1119.62 716.166 1128.83 719.231 1131.81 722.552 C 1130.36 724.903 1128.36 724.654 1124.93 725.504 C 1109.09 736.899 1108.22 732.005 1100.63 753.055 L 1099.33 752.77 L 1098.58 751.59 C 1099.18 747.885 1099.23 746.483 1099.19 742.718 C 1098.44 745.216 1098.14 745.942 1096.99 748.285 L 1095.67 747.863 L 1093.74 742.921 L 1093.52 748.975 C 1091.65 750.508 1092.66 750.216 1090.55 750.28 C 1085.17 731.373 1075.35 728.366 1058.53 721.536 C 1094.63 708.773 1088.97 697.463 1096.2 664.08 z"/>
<path transform="translate(0,0)" fill="url(#Gradient2)" d="M 1096.2 664.08 C 1101.35 681.861 1097.6 699.766 1114.54 712.383 C 1119.62 716.166 1128.83 719.231 1131.81 722.552 C 1130.36 724.903 1128.36 724.654 1124.93 725.504 L 1124.37 722.312 L 1122.27 722.096 C 1107.74 718.729 1100.31 704.555 1096 691.58 C 1092.02 706.542 1088.03 712.271 1075.41 721.284 C 1083.46 727.434 1089.97 733.202 1093.74 742.921 L 1093.52 748.975 C 1091.65 750.508 1092.66 750.216 1090.55 750.28 C 1085.17 731.373 1075.35 728.366 1058.53 721.536 C 1094.63 708.773 1088.97 697.463 1096.2 664.08 z"/>
<path transform="translate(0,0)" fill="rgb(23,31,31)" d="M 1122.27 722.096 L 1124.37 722.312 L 1124.93 725.504 C 1109.09 736.899 1108.22 732.005 1100.63 753.055 L 1099.33 752.77 L 1098.58 751.59 C 1099.18 747.885 1099.23 746.483 1099.19 742.718 C 1103.5 731.384 1111.35 726.147 1122.27 722.096 z"/>
<path transform="translate(0,0)" fill="rgb(250,249,242)" d="M 1511.66 1006.55 C 1515.51 1020.24 1513.93 1033.37 1520.74 1045.41 L 1521.5 1046.33 C 1530.21 1056.9 1538.36 1054.8 1541.9 1059.84 C 1540.52 1061.86 1538.46 1062.6 1535.99 1063.36 C 1521.79 1067.75 1517.55 1081.34 1514.46 1095.15 C 1511.53 1091.48 1512.39 1091.19 1511.78 1085.68 L 1510.33 1085.42 C 1509.53 1088.82 1509.38 1090.46 1507.13 1093.23 C 1506.71 1091.6 1506.27 1089.98 1505.81 1088.37 C 1499.35 1065.73 1491.37 1069.19 1476.93 1061.19 L 1476.69 1059.69 C 1483.43 1052.91 1493.53 1055.28 1502.91 1042.28 L 1503.65 1041.23 L 1506.37 1033.97 C 1507.57 1026.5 1509.35 1013.14 1511.66 1006.55 z"/>
<path transform="translate(0,0)" fill="url(#Gradient1)" d="M 1503.65 1041.23 L 1505.17 1047.02 C 1499.18 1053.88 1496.58 1056.06 1488.35 1059.91 C 1500.53 1065.43 1505.17 1071.6 1509.83 1084.08 L 1510.33 1085.42 C 1509.53 1088.82 1509.38 1090.46 1507.13 1093.23 C 1506.71 1091.6 1506.27 1089.98 1505.81 1088.37 C 1499.35 1065.73 1491.37 1069.19 1476.93 1061.19 L 1476.69 1059.69 C 1483.43 1052.91 1493.53 1055.28 1502.91 1042.28 L 1503.65 1041.23 z"/>
<path transform="translate(0,0)" fill="rgb(23,31,31)" d="M 1520.74 1045.41 L 1521.5 1046.33 C 1530.21 1056.9 1538.36 1054.8 1541.9 1059.84 C 1540.52 1061.86 1538.46 1062.6 1535.99 1063.36 C 1521.79 1067.75 1517.55 1081.34 1514.46 1095.15 C 1511.53 1091.48 1512.39 1091.19 1511.78 1085.68 C 1514.88 1073.47 1519.65 1067.38 1529.46 1060.11 C 1522.93 1055.55 1521.06 1053.49 1516.21 1047.17 L 1520.74 1045.41 z"/>
<path transform="translate(0,0)" fill="rgb(23,31,31)" d="M 1511.66 1006.55 C 1515.51 1020.24 1513.93 1033.37 1520.74 1045.41 L 1516.21 1047.17 C 1513.85 1043.02 1513.72 1039.57 1510.96 1035.56 L 1509.98 1037.06 L 1506.37 1033.97 C 1507.57 1026.5 1509.35 1013.14 1511.66 1006.55 z"/>
<path transform="translate(0,0)" fill="rgb(8,12,12)" d="M 1506.37 1033.97 L 1509.98 1037.06 C 1508.56 1040.21 1506.95 1044.15 1505.17 1047.02 L 1503.65 1041.23 L 1506.37 1033.97 z"/>
<path transform="translate(0,0)" fill="rgb(23,31,31)" d="M 709.046 177.48 C 725.58 173.183 741.211 167.151 742.08 147.365 C 742.27 143.047 741.975 138.775 744.317 135.208 L 745.63 135.283 C 747.257 137.915 750.03 152.175 751.483 156.928 C 753.549 161.886 753.977 162.804 757.252 167.027 C 764.085 173.069 767.953 174.307 776.123 178.011 C 750.158 187.356 750.989 195.713 745.108 221.534 C 737.332 192.239 739.149 186.557 709.046 177.48 z"/>
<path transform="translate(0,0)" fill="rgb(250,249,242)" d="M 724.917 177.696 C 736.737 170.058 740.417 166.407 745.446 153.513 L 746.43 154.813 L 751.483 156.928 C 753.549 161.886 753.977 162.804 757.252 167.027 C 758.819 169.33 759.858 170.924 761.211 173.355 L 759.955 174.842 C 760.817 175.389 761.541 176.22 762.305 176.967 C 751.745 186.16 749.49 188.307 744.636 200.901 C 740.082 188.517 736.472 184.234 724.917 177.696 z"/>
<path transform="translate(0,0)" fill="rgb(8,12,12)" d="M 746.43 154.813 L 751.483 156.928 C 753.549 161.886 753.977 162.804 757.252 167.027 C 758.819 169.33 759.858 170.924 761.211 173.355 L 759.955 174.842 C 751.334 168.589 749.296 164.891 746.43 154.813 z"/>
<path transform="translate(0,0)" fill="rgb(8,12,12)" d="M 614.318 565.951 C 615.388 561.138 616.591 553.859 619.019 549.83 L 620.638 549.298 C 622.393 551.453 625.302 565.762 625.436 568.728 C 631.84 578.898 636.891 580.974 647.619 585.27 C 634.321 590.85 628.349 594.202 623.043 609.056 C 621.883 612.304 621.565 616.586 619.981 619.524 C 616.991 615.424 614.477 605.695 611.992 600.587 C 607.253 590.844 597.815 588.663 588.358 585.324 C 603.132 579.717 606.144 579.446 614.318 565.951 z"/>
<path transform="translate(0,0)" fill="rgb(250,249,242)" d="M 615.952 570.98 L 618.112 566.164 L 619.565 565.974 C 620.737 568.239 621.682 570.138 622.711 572.471 C 627.314 579.487 629.561 580.989 636.863 585.265 L 634.071 586.84 C 624.161 592.375 622.676 597.098 618.939 607.663 C 614.331 594.566 612.987 592.677 601.446 585.002 C 608.145 580.348 611.444 577.745 615.952 570.98 z"/>
<path transform="translate(0,0)" fill="rgb(23,31,31)" d="M 614.318 565.951 C 615.388 561.138 616.591 553.859 619.019 549.83 L 620.638 549.298 C 622.393 551.453 625.302 565.762 625.436 568.728 L 622.711 572.471 C 621.682 570.138 620.737 568.239 619.565 565.974 L 618.112 566.164 L 615.952 570.98 L 614.318 565.951 z"/>
<path transform="translate(0,0)" fill="rgb(23,31,31)" d="M 671.187 748.654 C 674.498 752.942 676.086 767.849 678.462 772.929 C 682.013 780.525 694.024 784.135 701.427 786.609 C 680 791.759 677.41 803.386 672.307 822.846 C 669.74 817.086 669.43 806.996 664.798 799.167 C 657.28 786.459 646.933 790.973 643.265 786.675 C 646.833 781.347 658.297 780.872 663.976 772.144 C 669.927 762.997 666.898 756.741 671.187 748.654 z"/>
<path transform="translate(0,0)" fill="rgb(250,249,242)" d="M 670.574 768.645 C 675.849 773.647 677.987 780.096 686.387 787.163 C 677.74 793.967 676.869 795.706 673.029 806.099 C 668.224 795.259 665.168 791.957 655.67 785.299 C 663.641 779.937 666.506 777.064 670.574 768.645 z"/>
<path transform="translate(0,0)" fill="rgb(250,249,242)" d="M 1726.54 439.744 C 1731.7 426.812 1730.77 427.858 1734.11 414.2 L 1735.08 413.871 C 1738.33 422.157 1738.25 426.667 1740.66 434.971 C 1742.58 437.679 1744.96 441.366 1747.28 443.603 C 1750.54 445.215 1759.26 448.528 1760.8 450.51 C 1759.23 453.081 1751.11 455.393 1747.85 456.563 C 1743.86 462.046 1740.97 467.137 1738.71 473.589 C 1737.45 471.562 1737.1 469.654 1736.46 467.352 L 1735.86 467.858 L 1731.1 471.747 C 1730.55 470.126 1729.96 468.526 1729.3 466.948 C 1724.62 455.884 1717.03 454.09 1706.67 449.995 C 1715.87 447.074 1719.61 446.398 1726.54 439.744 z"/>
<path transform="translate(0,0)" fill="rgb(23,31,31)" d="M 1726.54 439.744 L 1729 443.29 C 1725.81 446.253 1724.22 447.725 1720.62 450.245 C 1729.13 456.01 1730.54 459.154 1735.86 467.858 L 1731.1 471.747 C 1730.55 470.126 1729.96 468.526 1729.3 466.948 C 1724.62 455.884 1717.03 454.09 1706.67 449.995 C 1715.87 447.074 1719.61 446.398 1726.54 439.744 z"/>
<path transform="translate(0,0)" fill="rgb(23,31,31)" d="M 1747.28 443.603 C 1750.54 445.215 1759.26 448.528 1760.8 450.51 C 1759.23 453.081 1751.11 455.393 1747.85 456.563 C 1743.86 462.046 1740.97 467.137 1738.71 473.589 C 1737.45 471.562 1737.1 469.654 1736.46 467.352 C 1739.46 458.587 1742.65 457.529 1747.27 450.229 L 1745.66 448.045 C 1746.24 446.523 1746.76 445.154 1747.28 443.603 z"/>
<path transform="translate(0,0)" fill="rgb(23,31,31)" d="M 1726.54 439.744 C 1731.7 426.812 1730.77 427.858 1734.11 414.2 L 1735.08 413.871 C 1738.33 422.157 1738.25 426.667 1740.66 434.971 L 1737.68 431.786 L 1735.03 433.317 C 1733.42 436.31 1731.23 440.959 1729 443.29 L 1726.54 439.744 z"/>
<path transform="translate(0,0)" fill="rgb(23,31,31)" d="M 1735.03 433.317 L 1737.68 431.786 L 1740.66 434.971 C 1742.58 437.679 1744.96 441.366 1747.28 443.603 C 1746.76 445.154 1746.24 446.523 1745.66 448.045 C 1740.08 443.016 1737.68 440.32 1735.03 433.317 z"/>
<path transform="translate(0,0)" fill="rgb(250,249,242)" d="M 821.357 245.023 C 822.528 238.44 823.173 230.218 824.579 224.289 C 828.271 237.33 826.945 243.814 834.109 255.109 L 832.904 259.758 C 835.376 261.941 837.382 263.957 840.274 265.541 C 842.617 266.594 843.292 266.732 845.085 268.656 C 838.471 271.496 833.819 274.757 830.816 281.721 C 829.854 285.815 828.48 293.212 825.874 296.025 L 824.302 295.574 C 820.516 290.131 821.134 286.541 817.88 279.935 L 817.393 278.959 C 812.061 271.403 807.25 270.418 798.943 266.674 L 797.68 265.917 L 798.244 264.59 C 799.092 264.331 799.938 264.066 800.782 263.793 C 812.571 259.964 815.683 256.12 821.357 245.023 z"/>
<path transform="translate(0,0)" fill="rgb(36,45,47)" d="M 820.094 274.423 L 824.05 281.65 L 825.565 282.085 C 827.113 279.569 827.207 279.265 828.068 276.413 C 828.968 278.776 829.108 280.171 830.816 281.721 C 829.854 285.815 828.48 293.212 825.874 296.025 L 824.302 295.574 C 820.516 290.131 821.134 286.541 817.88 279.935 L 817.393 278.959 L 820.094 274.423 z"/>
<path transform="translate(0,0)" fill="rgb(23,31,31)" d="M 821.357 245.023 C 822.528 238.44 823.173 230.218 824.579 224.289 C 828.271 237.33 826.945 243.814 834.109 255.109 L 832.904 259.758 C 829.633 256.563 828.145 253.542 824.456 250.391 L 821.357 245.023 z"/>
<path transform="translate(0,0)" fill="rgb(8,12,12)" d="M 821.357 245.023 L 824.456 250.391 C 819.822 257.385 816.553 262.983 808.241 265.702 L 807.16 265.923 C 804.703 264.165 801.494 265.451 798.943 266.674 L 797.68 265.917 L 798.244 264.59 C 799.092 264.331 799.938 264.066 800.782 263.793 C 812.571 259.964 815.683 256.12 821.357 245.023 z"/>
<path transform="translate(0,0)" fill="rgb(23,31,31)" d="M 798.943 266.674 C 801.494 265.451 804.703 264.165 807.16 265.923 L 808.241 265.702 C 813.984 267.318 816.429 269.946 820.094 274.423 L 817.393 278.959 C 812.061 271.403 807.25 270.418 798.943 266.674 z"/>
<path transform="translate(0,0)" fill="rgb(23,31,31)" d="M 840.274 265.541 C 842.617 266.594 843.292 266.732 845.085 268.656 C 838.471 271.496 833.819 274.757 830.816 281.721 C 829.108 280.171 828.968 278.776 828.068 276.413 C 831.466 270.597 834.681 268.977 840.274 265.541 z"/>
<path transform="translate(0,0)" fill="rgb(23,31,31)" d="M 1695.67 712.465 C 1712.54 699.807 1705.24 689.779 1711.31 676.341 C 1714.82 700.045 1713.08 707.247 1736.45 716.883 C 1727.22 720.171 1721.46 721.585 1716.46 731.068 C 1712.67 738.254 1712.33 749.361 1709.66 755.364 C 1707.75 741.212 1707.96 732.386 1696.74 722.879 L 1682.64 717.498 C 1687.45 715.846 1691.01 714.494 1695.67 712.465 z"/>
<path transform="translate(0,0)" fill="rgb(250,249,242)" d="M 1711.05 699.198 C 1715.12 708.076 1715.83 710.199 1723.22 716.168 C 1714.56 722.265 1713.43 725.518 1709.72 735.508 C 1706.45 727.187 1705.9 724.271 1698.74 719.082 L 1696.24 717.051 C 1704.21 712.064 1706.76 707.678 1711.05 699.198 z"/>
<path transform="translate(0,0)" fill="rgb(250,249,242)" d="M 1218.09 463.579 L 1218.6 462.405 C 1222.18 454.038 1221.33 444.447 1225.09 439.358 C 1227.4 441.559 1227.68 452.752 1229.08 456.707 C 1230.38 460.382 1231.7 463.01 1233.49 466.433 C 1237.31 468.532 1245.34 472.108 1247.6 474.873 C 1243.9 480.273 1237.73 476.645 1230.52 491.587 C 1229.21 496.346 1227.16 502.981 1226.26 507.68 C 1224.36 502.833 1221.7 496.663 1220.57 491.71 C 1215.56 479.329 1209.48 478.348 1197.5 473.178 C 1201.88 472.104 1205.98 471.105 1210.3 469.79 L 1218.09 463.579 z"/>
<path transform="translate(0,0)" fill="rgb(23,31,31)" d="M 1218.09 463.579 L 1218.6 462.405 C 1222.18 454.038 1221.33 444.447 1225.09 439.358 C 1227.4 441.559 1227.68 452.752 1229.08 456.707 C 1230.38 460.382 1231.7 463.01 1233.49 466.433 C 1237.31 468.532 1245.34 472.108 1247.6 474.873 C 1243.9 480.273 1237.73 476.645 1230.52 491.587 L 1227.62 491.911 L 1226.48 490.806 C 1229.24 482.51 1230.98 480.608 1237.34 474.476 C 1230.34 468.903 1229.42 467.166 1225.37 459.007 C 1221.35 465.289 1219.46 468.588 1213.48 473.077 C 1212.81 472.227 1211.13 470.633 1210.3 469.79 L 1218.09 463.579 z"/>
<path transform="translate(0,0)" fill="rgb(23,31,31)" d="M 1210.3 469.79 C 1211.13 470.633 1212.81 472.227 1213.48 473.077 C 1213.8 474.868 1224.47 484.548 1225.24 489.176 C 1225.36 489.863 1225.68 490.058 1226.48 490.806 L 1227.62 491.911 L 1230.52 491.587 C 1229.21 496.346 1227.16 502.981 1226.26 507.68 C 1224.36 502.833 1221.7 496.663 1220.57 491.71 C 1215.56 479.329 1209.48 478.348 1197.5 473.178 C 1201.88 472.104 1205.98 471.105 1210.3 469.79 z"/>
<path transform="translate(0,0)" fill="rgb(8,12,12)" d="M 1227.62 491.911 L 1230.52 491.587 C 1229.21 496.346 1227.16 502.981 1226.26 507.68 C 1224.36 502.833 1221.7 496.663 1220.57 491.71 C 1222.69 494.348 1222.13 494.613 1224.55 494.901 L 1227.62 491.911 z"/>
<path transform="translate(0,0)" fill="rgb(250,249,242)" d="M 1056.55 855.702 C 1057.74 850.416 1059.48 845.364 1060.49 840.115 L 1062.6 838.244 L 1062.42 835.553 C 1063.82 836.322 1065.42 838.804 1065.43 840.153 C 1065.55 859.932 1072.25 862.255 1088.46 870.042 C 1078.88 872.713 1073.94 873.083 1068.73 882.701 C 1067.68 886.143 1064.65 897.62 1062.2 899.555 C 1056.24 879.172 1053.88 875.596 1033.57 869.684 C 1045.52 865.55 1048.42 865.252 1056.55 855.702 z"/>
<path transform="translate(0,0)" fill="rgb(23,31,31)" d="M 1056.55 855.702 C 1057.74 850.416 1059.48 845.364 1060.49 840.115 L 1062.6 838.244 L 1062.42 835.553 C 1063.82 836.322 1065.42 838.804 1065.43 840.153 C 1065.55 859.932 1072.25 862.255 1088.46 870.042 C 1078.88 872.713 1073.94 873.083 1068.73 882.701 L 1065.06 880.758 C 1067.53 875.379 1069.2 873.042 1073.03 868.656 C 1069.27 865.158 1062.67 855.594 1061.44 855.098 L 1059.54 858.246 L 1056.55 855.702 z"/>
<path transform="translate(0,0)" fill="rgb(23,31,31)" d="M 1056.55 855.702 L 1059.54 858.246 C 1056.1 863.799 1054.57 865.327 1048.83 869.022 C 1054.85 874.081 1056.44 875.635 1060.47 882.432 C 1061.51 884.181 1061.66 884.876 1063.23 885.734 C 1064 883.87 1064.45 882.674 1065.06 880.758 L 1068.73 882.701 C 1067.68 886.143 1064.65 897.62 1062.2 899.555 C 1056.24 879.172 1053.88 875.596 1033.57 869.684 C 1045.52 865.55 1048.42 865.252 1056.55 855.702 z"/>
<path transform="translate(0,0)" fill="rgb(36,45,47)" d="M 1099.19 742.718 C 1099.23 746.483 1099.18 747.885 1098.58 751.59 L 1099.33 752.77 L 1100.63 753.055 C 1099.18 761.258 1098.39 766.03 1095.7 773.999 C 1093.33 765.864 1092.08 758.599 1090.55 750.28 C 1092.66 750.216 1091.65 750.508 1093.52 748.975 L 1093.74 742.921 L 1095.67 747.863 L 1096.99 748.285 C 1098.14 745.942 1098.44 745.216 1099.19 742.718 z"/>
<path transform="translate(0,0)" fill="rgb(36,45,47)" d="M 1510.33 1085.42 L 1511.78 1085.68 C 1512.39 1091.19 1511.53 1091.48 1514.46 1095.15 C 1513.28 1100.3 1511.7 1105.64 1510.28 1110.75 C 1509.1 1105.09 1508.14 1098.96 1507.13 1093.23 C 1509.38 1090.46 1509.53 1088.82 1510.33 1085.42 z"/>
<path transform="translate(0,0)" fill="rgb(23,31,31)" d="M 834.109 255.109 L 835.067 255.973 C 840.14 260.498 849.602 263.756 850.665 266.276 C 848.526 267.876 847.721 267.919 845.085 268.656 C 843.292 266.732 842.617 266.594 840.274 265.541 C 837.382 263.957 835.376 261.941 832.904 259.758 L 834.109 255.109 z"/>
<path transform="translate(0,0)" fill="rgb(36,45,47)" d="M 1735.86 467.858 L 1736.46 467.352 C 1737.1 469.654 1737.45 471.562 1738.71 473.589 C 1738.62 476.79 1735.7 485.617 1734.65 489.133 C 1733.34 483.81 1732.19 477.217 1731.1 471.747 L 1735.86 467.858 z"/>
</svg>